<?xml version="1.0" encoding="UTF-8" standalone="no"?>
<svg
   version="1.0"
   width="1024.000000pt"
   height="1024.000000pt"
   viewBox="0 0 1024.000000 1024.000000"
   preserveAspectRatio="xMidYMid meet"
   id="svg4"
   sodipodi:docname="IMG_2208.svg"
   inkscape:export-filename="IMG_2208-gray.png"
   inkscape:export-xdpi="96"
   inkscape:export-ydpi="96"
   inkscape:version="1.4 (e7c3feb1, 2024-10-09)"
   xmlns:inkscape="http://www.inkscape.org/namespaces/inkscape"
   xmlns:sodipodi="http://sodipodi.sourceforge.net/DTD/sodipodi-0.dtd"
   xmlns="http://www.w3.org/2000/svg"
   xmlns:svg="http://www.w3.org/2000/svg">
  <defs
     id="defs4" />
  <sodipodi:namedview
     id="namedview4"
     pagecolor="#ffffff"
     bordercolor="#000000"
     borderopacity="0.25"
     inkscape:showpageshadow="2"
     inkscape:pageopacity="0.0"
     inkscape:pagecheckerboard="0"
     inkscape:deskcolor="#d1d1d1"
     inkscape:document-units="pt"
     inkscape:export-bgcolor="#00000000"
     inkscape:zoom="0.42993164"
     inkscape:cx="682.66667"
     inkscape:cy="682.66667"
     inkscape:window-width="1280"
     inkscape:window-height="814"
     inkscape:window-x="1780"
     inkscape:window-y="245"
     inkscape:window-maximized="0"
     inkscape:current-layer="svg4" />
  <g
     transform="translate(0.000000,1024.000000) scale(0.100000,-0.100000)"
     fill="#000000"
     stroke="none"
     id="g4"
     style="fill:#ececec">
    <path
       d="M2133 8248 c3 -9 33 -92 67 -185 34 -92 116 -321 181 -508 165 -469 285 -803 374 -1045 84 -227 57 -184 354 -569 57 -74 107 -144 112 -156 5 -11 20 -74 33 -140 51 -248 138 -630 144 -636 4 -4 149 -107 322 -229 173 -123 424 -304 557 -404 l243 -181 0 -465 c0 -256 3 -764 7 -1130 l6 -666 279 -314 c153 -173 282 -316 286 -318 5 -1 135 144 290 322 l282 325 0 678 c0 373 3 877 7 1119 l6 442 161 125 c166 128 363 271 738 535 188 133 218 157 224 185 84 389 176 764 191 783 10 13 112 132 227 264 l209 241 39 107 c22 59 112 316 200 572 220 638 317 917 382 1103 31 87 51 155 46 152 -5 -3 -83 -92 -172 -198 -89 -106 -237 -280 -328 -387 -91 -107 -215 -253 -275 -325 -88 -105 -287 -340 -511 -603 -17 -21 -152 -237 -299 -482 -507 -842 -1061 -1766 -1225 -2042 -91 -153 -168 -278 -171 -278 -3 0 -72 111 -154 247 -208 347 -670 1107 -905 1488 -108 176 -297 485 -419 687 -247 406 -175 310 -766 1014 -143 170 -363 433 -489 584 -125 151 -235 282 -244 290 -13 13 -14 13 -9 -2z"
       id="path1"
       style="fill:#ececec" />
    <path
       d="M4135 7932 c-16 -10 -178 -101 -360 -202 -181 -101 -332 -185 -334 -186 -4 -3 243 -457 689 -1269 164 -297 395 -718 514 -935 296 -538 489 -880 495 -880 3 0 56 91 118 203 61 111 385 699 721 1307 775 1405 847 1539 836 1550 -5 5 -183 104 -395 219 l-387 211 -933 0 c-887 0 -936 -1 -964 -18z"
       id="path2"
       style="fill:#ececec" />
    <path
       d="M6877 4484 c-268 -261 -487 -476 -487 -477 -3 -10 -31 -559 -36 -687 -4 -91 -10 -170 -13 -177 -4 -7 -26 52 -49 130 -24 78 -84 279 -135 446 l-92 304 -3 -412 c-1 -226 -1 -596 0 -823 l3 -412 170 185 c94 101 365 396 602 655 l432 472 31 393 c55 691 68 874 66 876 -1 2 -222 -211 -489 -473z"
       id="path3"
       style="fill:#ececec" />
    <path
       d="M2820 4927 c0 -14 13 -193 30 -399 16 -205 37 -479 46 -609 l17 -236 156 -169 c149 -162 283 -309 811 -887 129 -141 237 -257 240 -257 5 0 3 1332 -3 1542 l-2 97 -129 -432 c-71 -238 -133 -436 -137 -441 -5 -6 -9 9 -10 35 0 24 -10 222 -23 439 l-22 394 -330 323 c-577 566 -644 629 -644 600z"
       id="path4"
       style="fill:#ececec" />
  </g>
</svg>
